<svg width="42" height="39" viewBox="0 0 42 39" fill="none" xmlns="http://www.w3.org/2000/svg">
<path d="M39.3531 2.15064C38.2113 1.07394 36.6644 0.469543 35.0502 0.469543C33.4383 0.469543 31.8913 1.07394 30.7496 2.15064L3.44135 27.94C2.65779 28.6742 2.03765 29.5472 1.61677 30.5097C1.19365 31.47 0.978736 32.5019 0.980974 33.5428V36.7998C0.980974 37.2206 1.15777 37.6235 1.47343 37.9212C1.78686 38.2167 2.21452 38.3846 2.66003 38.3846H6.10765C7.20911 38.3869 8.30162 38.1831 9.32024 37.7847C10.3389 37.3862 11.2657 36.802 12.0426 36.0633L39.3531 10.274C40.4926 9.19508 41.1307 7.73561 41.1307 6.21346C41.1307 4.68906 40.4926 3.22958 39.3531 2.15064ZM9.6695 33.8204C8.72251 34.7091 7.44194 35.2105 6.10765 35.2127H4.33909V33.5428C4.33685 32.9183 4.46666 32.3005 4.71964 31.723C4.97262 31.1454 5.34652 30.6216 5.81442 30.1807L26.5407 10.6098L30.4026 14.2562L9.6695 33.8204ZM36.9777 8.03108L32.7689 12.0066L28.9071 8.36909L33.1159 4.39358C33.3711 4.15406 33.6711 3.96378 34.0025 3.83618C34.3338 3.70635 34.6875 3.63922 35.0457 3.64146C35.4039 3.64146 35.7599 3.70861 36.089 3.83844C36.4203 3.96827 36.7204 4.15854 36.9733 4.39805C37.2263 4.63757 37.4277 4.91962 37.5643 5.233C37.7009 5.54639 37.7702 5.87991 37.7702 6.22015C37.7702 6.55816 37.6987 6.8917 37.5621 7.20508C37.4256 7.51623 37.224 7.80051 36.971 8.04003L36.9777 8.03108Z" fill="#97989D"/>
</svg>
