<svg width="36" height="39" viewBox="0 0 36 39" fill="none" xmlns="http://www.w3.org/2000/svg">
<path d="M21.1361 38.9616C20.7914 38.9616 20.4578 38.8496 20.1847 38.6437L13.8401 33.887C13.6431 33.7392 13.4842 33.549 13.3745 33.3274C13.2648 33.108 13.2065 32.8662 13.2065 32.62V23.7087L2.07996 11.1934C1.28969 10.3025 0.774789 9.20122 0.595689 8.02379C0.414351 6.84635 0.580014 5.64207 1.06806 4.55642C1.55611 3.47076 2.34864 2.54849 3.34712 1.89934C4.34783 1.25242 5.51422 0.907715 6.70523 0.907715H29.2225C30.4135 0.909953 31.5799 1.25468 32.5784 1.90159C33.5791 2.55075 34.3694 3.47298 34.8574 4.55864C35.3455 5.64429 35.5089 6.84858 35.3298 8.02601C35.1484 9.20344 34.6335 10.3048 33.8433 11.1957L22.7212 23.7087V37.3767C22.7212 37.7976 22.5533 38.2005 22.2578 38.4982C21.96 38.7937 21.557 38.9616 21.1361 38.9616ZM16.3788 31.8253L19.5489 34.2048V23.1066C19.5489 22.7171 19.6922 22.3432 19.9519 22.0522L31.477 9.08707C31.8598 8.65281 32.1105 8.11779 32.1978 7.54474C32.2851 6.9717 32.2045 6.38525 31.9672 5.85473C31.7299 5.32645 31.3448 4.87874 30.8568 4.56311C30.371 4.24749 29.8023 4.07963 29.2225 4.07963H6.70523C6.1254 4.07963 5.55897 4.24749 5.07092 4.56311C4.58512 4.87874 4.20006 5.32645 3.96276 5.85473C3.72321 6.38301 3.64261 6.96948 3.72992 7.54252C3.81723 8.11557 4.06795 8.65281 4.45077 9.08707L15.9781 22.0522C16.2356 22.3432 16.3788 22.7171 16.3788 23.1066V31.8253Z" fill="#97989D"/>
</svg>
