<svg width="39" height="39" viewBox="0 0 39 39" fill="none" xmlns="http://www.w3.org/2000/svg">
<path d="M38.1565 36.2553L28.6911 26.7911C31.2724 23.6371 32.5395 19.6123 32.235 15.5473C31.9283 11.4845 30.0724 7.69479 27.0523 4.96162C24.03 2.22846 20.0719 0.760012 15.9997 0.862981C11.9251 0.963712 8.0454 2.62688 5.16413 5.50778C2.28287 8.38868 0.619487 12.268 0.518744 16.342C0.415762 20.4137 1.88436 24.3713 4.61787 27.3932C7.35138 30.4152 11.1416 32.2686 15.2049 32.5753C19.2705 32.8797 23.2957 31.6127 26.4501 29.0318L35.9155 38.496C36.2133 38.787 36.614 38.9459 37.0304 38.9415C37.4468 38.9392 37.8431 38.7713 38.1386 38.4781C38.4319 38.1849 38.5998 37.7864 38.602 37.3701C38.6065 36.9537 38.4453 36.553 38.1565 36.2553ZM16.4205 29.4481C13.9131 29.4481 11.4595 28.705 9.37297 27.3104C7.28646 25.9158 5.66113 23.9348 4.70071 21.618C3.74029 19.299 3.48955 16.7493 3.97984 14.2893C4.46788 11.8292 5.6768 9.56838 7.44988 7.79328C9.22521 6.02042 11.4863 4.81164 13.9467 4.32365C16.4071 3.83343 18.957 4.08415 21.2764 5.04445C23.5935 6.00475 25.5748 7.62985 26.9695 9.7161C28.3642 11.8023 29.1075 14.2557 29.1075 16.7628C29.103 20.1272 27.7665 23.3506 25.3867 25.7278C23.0092 28.1073 19.7854 29.4437 16.4205 29.4481Z" fill="#97989D"/>
</svg>
