<svg width="9" height="5" viewBox="0 0 9 5" fill="none" xmlns="http://www.w3.org/2000/svg">
<path d="M5.64835 4.34162L8.1346 1.85537C8.23549 1.75388 8.29211 1.6166 8.29211 1.4735C8.29211 1.33039 8.23549 1.19311 8.1346 1.09162C8.08425 1.04085 8.02434 1.00055 7.95833 0.973055C7.89232 0.945555 7.82152 0.931396 7.75002 0.931396C7.67851 0.931396 7.60771 0.945555 7.54171 0.973055C7.4757 1.00055 7.41579 1.04085 7.36543 1.09162L4.8846 3.58329C4.83425 3.63406 4.77434 3.67435 4.70833 3.70185C4.64232 3.72935 4.57152 3.74351 4.50002 3.74351C4.42851 3.74351 4.35771 3.72935 4.29171 3.70185C4.2257 3.67435 4.16579 3.63406 4.11543 3.58329L1.6346 1.09162C1.53332 0.989623 1.39567 0.932036 1.25193 0.931528C1.10819 0.93102 0.97014 0.987633 0.868142 1.08891C0.766144 1.19019 0.708557 1.32784 0.708049 1.47158C0.707541 1.61532 0.764155 1.75337 0.865434 1.85537L3.35168 4.34162C3.65637 4.64593 4.06939 4.81686 4.50002 4.81686C4.93064 4.81686 5.34366 4.64593 5.64835 4.34162Z" fill="#232A6C"/>
</svg>
